<?xml version="1.0" encoding="utf-8"?>
<!-- Svg Vector Icons : http://www.onlinewebfonts.com/icon -->
<!DOCTYPE svg PUBLIC "-//W3C//DTD SVG 1.1//EN" "http://www.w3.org/Graphics/SVG/1.1/DTD/svg11.dtd">
<svg version="1.1" xmlns="http://www.w3.org/2000/svg" xmlns:xlink="http://www.w3.org/1999/xlink" x="0px" y="0px" viewBox="0 0 1000 1000" enable-background="new 0 0 1000 1000" xml:space="preserve">
<metadata> Svg Vector Icons : http://www.onlinewebfonts.com/icon </metadata>
<g><g transform="translate(0.000000,511.000000) scale(0.100000,-0.100000)"><path d="M4676.7,4742.3c-498.5-88.9-953.6-322.9-1298.2-665.4c-474.6-470.3-719.6-1051.2-721.7-1710c-2.2-433.5,78-762.9,275.3-1144.3c80.2-158.2,114.9-201.6,175.6-231.9c97.5-45.5,186.4-26,257.9,58.5c78,93.2,69.4,169-54.2,416.1c-166.9,338.1-203.7,498.5-203.7,901.6c2.2,303.4,6.5,355.4,60.7,528.8c338.1,1116.2,1489,1707.9,2564,1324.3c652.4-231.9,1148.7-814.9,1276.5-1495.5c43.3-234.1,32.5-637.2-23.8-856.1c-19.5-78-88.8-249.2-153.9-381.5c-65-136.5-117-270.9-117-307.7c0-101.9,97.5-203.7,199.4-205.9c130-4.3,182,41.2,286.1,242.7c203.7,401,281.7,715.2,279.6,1150.9c-2.2,585.2-188.6,1092.3-574.3,1558.3c-283.9,340.3-786.7,654.5-1241.9,773.7C5396.3,4768.3,4934.6,4787.8,4676.7,4742.3z"/><path d="M8957.2,3728c-75.9-41.2-119.2-112.7-119.2-199.4c0-73.7,17.3-99.7,151.7-238.4c84.5-86.7,151.7-164.7,151.7-171.2c0-8.7-264.4-15.2-587.3-15.2h-587.4l-62.8-62.9c-88.9-88.8-88.9-218.9,0-307.8l62.8-62.8h587.4c322.9,0,587.3-8.7,587.3-17.3c0-8.7-58.5-73.7-132.2-145.2c-160.4-160.4-201.6-229.7-184.2-327.3c17.3-84.5,123.5-182,199.4-182c95.4,0,164.7,56.3,524.5,416.1L9900,2770v106.2v106.2l-385.8,385.8c-327.3,329.4-394.5,385.8-448.6,385.8C9028.7,3754,8981,3741,8957.2,3728z"/><path d="M851.4,3693.3c-34.7-23.9-218.9-197.2-405.3-388c-466-470.3-470.3-407.5,41.2-921.1c372.8-372.8,387.9-385.8,472.5-385.8c140.9,2.2,242.7,114.9,218.9,247.1c-8.7,45.5-60.7,117-164.7,218.9l-153.9,151.7l596,10.8l598.2,10.8l58.5,60.7c47.7,47.7,60.7,80.2,60.7,158.2c0,84.5-10.8,108.4-71.5,162.5l-69.4,62.9h-589.5H853.6l143,147.4c169,173.4,199.4,223.2,182.1,316.4C1150.5,3695.5,977.1,3773.5,851.4,3693.3z"/><path d="M4720.1,3038.8c-149.5-54.2-253.6-138.7-335.9-270.9l-65-104l-6.5-1298.2l-4.3-1296.1h-158.2c-353.3,0-628.5-91-795.4-262.3c-106.2-110.5-264.4-424.8-312.1-626.3c-121.4-509.3-84.5-1111.8,106.2-1744.7c318.6-1053.3,945-1827.1,1588.6-1959.3c73.7-15.2,528.9-23.8,1300.4-23.8c1293.9,0,1322.1,2.2,1551.8,125.7c136.5,73.7,387.9,320.8,498.5,487.7c266.6,409.6,453,953.6,567.8,1655.8c45.5,281.7,65,1088,32.5,1328.6c-69.3,522.3-242.7,866.9-489.8,977.5c-149.6,67.2-1012.1,268.8-2102.3,492l-390.1,80.2l-10.8,1031.6l-10.8,1031.7l-65,104c-34.7,56.3-99.7,132.2-140.9,166.9C5298.8,3077.8,4962.8,3125.5,4720.1,3038.8z M5196.9,2585.8l54.2-39l10.8-1107.5l10.8-1109.7l56.3-56.4c49.8-49.8,130-71.5,726.1-192.9c819.3-166.9,1389.3-294.8,1727.4-383.6c240.6-62.9,260.1-71.5,309.9-145.2c160.4-242.7,225.4-1029.5,138.7-1681.8c-127.9-964.5-474.7-1710-884.3-1911.6l-123.5-60.7l-1111.8-6.5c-717.4-4.3-1153,2.2-1235.4,17.3c-182.1,32.5-338.1,121.3-528.8,301.3c-795.4,747.7-1183.4,2457.8-721.7,3190.3c97.5,158.2,184.2,197.2,468.1,210.2l208.1,8.7l10.8-132.2c8.7-108.4,19.5-145.2,67.2-192.9c84.5-84.5,227.6-82.4,312.1,2.1l60.7,58.5l6.5,1586.5c4.3,1215.9,10.8,1593,32.5,1616.8C4869.6,2653,5086.3,2668.1,5196.9,2585.8z"/></g></g>
</svg>